# xmcd CD database file
#
# Track frame offsets:
#	150
#	12300
#	36675
#	61650
#	69975
#	85350
#	106875
#	121350
#	132150
#	152475
#	163725
#
# Disc length: 2411 seconds
#
# Revision: 0
# Processed by: cddbd v1.5.1PL0 Copyright (c) Steve Scherf et al.
# Submitted via: CDex 1.51
#
DISCID=8c09690b
DTITLE=4WALLS - Which side are you on
DYEAR=2004
DGENRE=Jazz
TTITLE0=Airport insecurity
TTITLE1=On reading, 'Anthology of 1000 poets'
TTITLE2=Ces gens-là
TTITLE3=Tales from the Hindu Tush
TTITLE4=The skunk hath farted
TTITLE5=If there are individuals you can tell from a distance don't like garlic
TTITLE6=Which side are you on
TTITLE7=Class struggle
TTITLE8=Not all olives have pits: An under funded sense of wonderment
TTITLE9=A milestone
TTITLE10=Im Rhein
EXTD=YEAR: 2004
EXTT0=
EXTT1=
EXTT2=
EXTT3=
EXTT4=
EXTT5=
EXTT6=
EXTT7=
EXTT8=
EXTT9=
EXTT10=
PLAYORDER=
